<svg width="32" height="32" viewBox="0 0 32 32" fill="none" xmlns="http://www.w3.org/2000/svg">
<circle opacity="0.74" cx="16" cy="16" r="16" fill="white"/>
<path d="M16 6.66666C10.8415 6.66666 6.66667 10.841 6.66667 16C6.66667 21.1584 10.841 25.3333 16 25.3333C21.1585 25.3333 25.3333 21.159 25.3333 16C25.3333 10.8415 21.159 6.66666 16 6.66666ZM16 24.031C11.5717 24.031 7.969 20.4283 7.969 16C7.969 11.5717 11.5717 7.96898 16 7.96898C20.4283 7.96898 24.031 11.5717 24.031 16C24.031 20.4283 20.4283 24.031 16 24.031Z" fill="black"/>
<path d="M16.0002 14.4467C15.4473 14.4467 15.0542 14.6801 15.0542 15.0241V19.7049C15.0542 19.9997 15.4473 20.2945 16.0002 20.2945C16.5284 20.2945 16.9584 19.9997 16.9584 19.7049V15.024C16.9584 14.6801 16.5284 14.4467 16.0002 14.4467Z" fill="black"/>
<path d="M16.0002 11.5596C15.4351 11.5596 14.9928 11.965 14.9928 12.4319C14.9928 12.8988 15.4351 13.3165 16.0002 13.3165C16.5531 13.3165 16.9954 12.8988 16.9954 12.4319C16.9954 11.965 16.553 11.5596 16.0002 11.5596Z" fill="black"/>
</svg>
