<svg width="32" height="32" viewBox="0 0 32 32" fill="none" xmlns="http://www.w3.org/2000/svg">
<circle opacity="0.74" cx="16" cy="16" r="16" fill="white"/>
<path d="M20.9514 5.79529C21.2472 6.09117 21.4133 6.49241 21.4133 6.91077C21.4133 7.32914 21.2472 7.73038 20.9514 8.02626L13.1416 15.8362L20.9514 23.6461C21.2388 23.9437 21.3978 24.3423 21.3942 24.756C21.3906 25.1696 21.2247 25.5654 20.9322 25.8579C20.6396 26.1504 20.2439 26.3164 19.8303 26.32C19.4166 26.3235 19.018 26.1645 18.7205 25.8771L9.79527 16.9517C9.49949 16.6558 9.33333 16.2546 9.33333 15.8362C9.33333 15.4178 9.49949 15.0166 9.79527 14.7207L18.7205 5.79529C19.0164 5.49951 19.4176 5.33334 19.8359 5.33334C20.2543 5.33334 20.6555 5.49951 20.9514 5.79529Z" fill="#252525"/>
</svg>
