<svg width="32" height="32" viewBox="0 0 32 32" fill="none" xmlns="http://www.w3.org/2000/svg">
<circle opacity="0.74" cx="16" cy="16" r="16" fill="white"/>
<path d="M26.5333 25.4943L20.9839 19.9448C22.3175 18.3439 22.9825 16.2904 22.8406 14.2116C22.6987 12.1329 21.7608 10.1888 20.2221 8.7839C18.6833 7.379 16.6622 6.62142 14.5791 6.66875C12.496 6.71608 10.5114 7.56468 9.03803 9.03802C7.56469 10.5114 6.71609 12.496 6.66876 14.5791C6.62142 16.6622 7.37901 18.6833 8.78391 20.2221C10.1888 21.7608 12.1329 22.6987 14.2116 22.8406C16.2904 22.9825 18.3439 22.3175 19.9449 20.9839L25.4943 26.5333L26.5333 25.4943ZM8.1626 14.7761C8.1626 13.468 8.55047 12.1894 9.27717 11.1018C10.0039 10.0142 11.0367 9.16657 12.2452 8.66601C13.4537 8.16546 14.7834 8.03449 16.0663 8.28967C17.3492 8.54485 18.5276 9.17472 19.4525 10.0996C20.3774 11.0245 21.0073 12.2029 21.2625 13.4858C21.5176 14.7687 21.3867 16.0985 20.8861 17.3069C20.3855 18.5154 19.5379 19.5483 18.4503 20.2749C17.3627 21.0016 16.0841 21.3895 14.7761 21.3895C13.0227 21.3876 11.3416 20.6902 10.1018 19.4503C8.86194 18.2105 8.16455 16.5295 8.1626 14.7761Z" fill="#252525"/>
</svg>
