<svg width="33" height="34" viewBox="0 0 33 34" fill="none" xmlns="http://www.w3.org/2000/svg">
<rect width="33" height="34" rx="6" fill="#F5F5F5"/>
<path d="M8.50643 14.2633L12.4082 10.3636L12.4659 10.3134L12.5053 10.2876L12.5541 10.2611L12.6254 10.234L12.6966 10.219L12.7319 10.2156L12.7679 10.2143L12.8065 10.2156L12.869 10.2245L12.9416 10.2448L12.9993 10.2699L13.0359 10.2903L13.0786 10.3201L13.1275 10.3636L17.0293 14.2633C17.1195 14.3542 17.1721 14.4759 17.1766 14.6039C17.1811 14.7319 17.1372 14.8569 17.0536 14.9539C16.97 15.051 16.8529 15.1129 16.7256 15.1274C16.5983 15.1419 16.4703 15.1079 16.367 15.0321L16.31 14.9833L13.2768 11.9514V23.2768C13.2768 23.4057 13.2278 23.5298 13.1397 23.6241C13.0517 23.7183 12.9312 23.7756 12.8026 23.7844C12.6739 23.7932 12.5467 23.7528 12.4467 23.6714C12.3467 23.59 12.2813 23.4737 12.2637 23.346L12.2589 23.2768V11.9514L9.22572 14.9833C9.13946 15.0694 9.02518 15.1216 8.90364 15.1306C8.78211 15.1396 8.66139 15.1046 8.56343 15.0321L8.50643 14.9833C8.42006 14.8971 8.36755 14.7827 8.35846 14.661C8.34936 14.5393 8.3843 14.4184 8.4569 14.3203L8.50643 14.2633ZM20.2321 10.2143C20.3551 10.2143 20.474 10.2588 20.5666 10.3397C20.6593 10.4205 20.7196 10.5322 20.7363 10.654L20.7411 10.7232V22.0465L23.7743 19.0154L23.8313 18.9658C23.9293 18.8929 24.0504 18.8576 24.1723 18.8665C24.2942 18.8755 24.4088 18.9279 24.4951 19.0144C24.5815 19.1009 24.6339 19.2155 24.6427 19.3374C24.6515 19.4593 24.6162 19.5803 24.5431 19.6783L24.4936 19.7346L20.6067 23.6208C20.5186 23.7172 20.3967 23.776 20.2664 23.7848C20.1361 23.7936 20.0074 23.7519 19.9071 23.6683L19.8576 23.6208L15.9707 19.7346L15.9212 19.6776C15.8573 19.5912 15.8224 19.4867 15.8215 19.3792C15.8207 19.2716 15.8539 19.1666 15.9164 19.0791L15.9707 19.0154L16.0277 18.9658C16.1142 18.9019 16.2187 18.867 16.3262 18.8662C16.4337 18.8653 16.5387 18.8985 16.6262 18.9611L16.69 19.0154L19.7232 22.0479V10.7232L19.728 10.654C19.7447 10.5322 19.805 10.4205 19.8977 10.3397C19.9903 10.2588 20.1092 10.2143 20.2321 10.2143Z" fill="#252525"/>
</svg>
