<svg width="112" height="34" viewBox="0 0 112 34" fill="none" xmlns="http://www.w3.org/2000/svg">
<rect width="112" height="34" rx="6" fill="#F5F5F5"/>
<path d="M23.2158 15.6844V16.729C23.2117 17.9822 22.688 18.5703 22.1688 18.6853C21.6494 18.8003 21.0358 18.4753 20.7474 17.5736C20.7321 17.5256 20.702 17.4838 20.6615 17.454C20.6209 17.4243 20.572 17.4081 20.5217 17.4078L16.834 17.3878L16.8312 17.8645L20.3741 17.8836C20.7497 18.8287 21.53 19.3151 22.2717 19.1508C23.0598 18.9763 23.6884 18.1212 23.6925 16.7295V15.6848H23.2158L23.2158 15.6844Z" fill="url(#paint0_linear_1_744)"/>
<path d="M11.0188 15.2049C10.6852 15.2049 10.4094 15.4807 10.4094 15.8143C10.4094 16.1479 10.6852 16.4242 11.0188 16.4242H17.1897C17.5233 16.4242 17.7996 16.1479 17.7996 15.8143C17.7996 15.4807 17.5233 15.2049 17.1897 15.2049H11.0188ZM11.0188 15.6816H17.1897C17.2675 15.6816 17.3229 15.7366 17.3229 15.8143C17.3229 15.8921 17.2675 15.9475 17.1897 15.9475H11.0188C10.9411 15.9475 10.8862 15.8921 10.8862 15.8143C10.8862 15.7366 10.9411 15.6816 11.0188 15.6816Z" fill="url(#paint1_linear_1_744)"/>
<path d="M11.4769 16.1635L11.0025 16.2082L11.3978 20.3879C11.4524 20.9644 11.8919 21.468 12.4993 21.468H15.7093C16.3166 21.468 16.7562 20.9644 16.8108 20.3879L17.206 16.2082L16.7316 16.1635L16.3359 20.3432C16.3002 20.7199 16.0594 20.9912 15.7093 20.9912H12.4993C12.1492 20.9912 11.9083 20.7199 11.8727 20.3432L11.4769 16.1635Z" fill="url(#paint2_linear_1_744)"/>
<path d="M11.7949 21.0448C11.7948 21.0588 11.7948 21.0727 11.7949 21.0867C11.7963 22.3583 12.8325 23.3939 14.1045 23.3939C15.3758 23.3939 16.412 22.3594 16.4141 21.0881H15.9374C15.9357 22.102 15.1184 22.9177 14.1045 22.9176C13.0894 22.9176 12.2712 22.0999 12.2712 21.0848C12.2712 21.084 12.2712 21.0832 12.2712 21.0824C12.2711 21.0714 12.2711 21.0605 12.2712 21.0494L11.7949 21.0451V21.0448Z" fill="url(#paint3_linear_1_744)"/>
<path d="M13.4532 21.1913L12.9825 21.2686C13.0726 21.8162 13.5495 22.2211 14.1045 22.2211C14.6595 22.2211 15.1359 21.8162 15.226 21.2686L14.7558 21.1913C14.7031 21.5119 14.4293 21.7444 14.1045 21.7444C13.7797 21.7444 13.5059 21.5119 13.4532 21.1913Z" fill="url(#paint4_linear_1_744)"/>
<path d="M18.6324 15.7486C18.2515 15.7486 17.9374 16.0627 17.9374 16.4437C17.9374 16.8246 18.2515 17.1387 18.6324 17.1387H19.9243C20.3053 17.1387 20.6194 16.8246 20.6194 16.4437C20.6194 16.0627 20.3053 15.7486 19.9243 15.7486H18.6324ZM18.6324 16.2253H19.9243C20.0495 16.2253 20.1427 16.3186 20.1427 16.4437C20.1427 16.5688 20.0495 16.662 19.9243 16.662H18.6324C18.5073 16.662 18.4141 16.5688 18.4141 16.4437C18.4141 16.3186 18.5073 16.2253 18.6324 16.2253Z" fill="url(#paint5_linear_1_744)"/>
<path d="M23.9951 13.5387C23.8135 13.5387 23.6365 13.5485 23.4686 13.5778L23.551 14.0476C23.6804 14.0249 23.8316 14.0154 23.9951 14.0154C24.313 14.0154 24.5829 14.0577 24.7395 14.1439C24.8962 14.2301 24.9718 14.3254 24.9718 14.5964C24.9718 15.1386 24.5372 15.5727 23.9951 15.5727C23.4947 15.5727 23.0866 15.2005 23.0263 14.7189L22.5533 14.7785C22.643 15.4949 23.2569 16.0494 23.9951 16.0494C24.7949 16.0494 25.4486 15.3962 25.4486 14.5964C25.4486 14.1966 25.2521 13.8821 24.9691 13.7263C24.686 13.5706 24.3482 13.5387 23.9951 13.5387Z" fill="url(#paint6_linear_1_744)"/>
<path d="M22.9895 13.2904C22.5185 13.2904 22.1315 13.6774 22.1315 14.1484C22.1315 14.6195 22.5185 15.0064 22.9895 15.0064C23.4606 15.0064 23.8475 14.6195 23.8475 14.1484C23.8475 13.6774 23.4606 13.2904 22.9895 13.2904ZM22.9895 13.7671C23.203 13.7671 23.3708 13.935 23.3708 14.1484C23.3708 14.3619 23.203 14.5297 22.9895 14.5297C22.7761 14.5297 22.6083 14.3619 22.6083 14.1484C22.6083 13.935 22.7761 13.7671 22.9895 13.7671Z" fill="url(#paint7_linear_1_744)"/>
<path d="M23.9514 21.2132L23.476 21.2467C23.5612 22.454 24.5697 23.3938 25.78 23.3938C26.9903 23.3938 27.9988 22.4539 28.084 21.2467L27.6083 21.2132C27.5403 22.1753 26.7445 22.9171 25.78 22.9171C24.8155 22.9171 24.0192 22.1753 23.9514 21.2132Z" fill="url(#paint8_linear_1_744)"/>
<path d="M25.1287 21.1913L24.6581 21.2686C24.7481 21.8162 25.2251 22.2211 25.78 22.2211C26.335 22.2211 26.8115 21.8162 26.9016 21.2686L26.4313 21.1913C26.3786 21.5119 26.1049 21.7444 25.78 21.7444C25.4552 21.7444 25.1815 21.5119 25.1287 21.1913Z" fill="url(#paint9_linear_1_744)"/>
<path d="M24.4285 15.6695L24.017 15.9102L25.5743 18.5704L25.9853 18.3292L24.4285 15.6695Z" fill="url(#paint10_linear_1_744)"/>
<path d="M23.6651 20.0759C23.2835 20.0759 22.9691 20.3904 22.9691 20.7719C22.9691 21.1535 23.2835 21.468 23.6651 21.468H27.8946C28.2761 21.468 28.5906 21.1535 28.5906 20.7719C28.5906 20.3904 28.2761 20.0759 27.8946 20.0759H23.6651ZM23.6651 20.5527H27.8946C28.0203 20.5527 28.1139 20.6463 28.1139 20.7719C28.1139 20.8976 28.0203 20.9912 27.8946 20.9912H23.6651C23.5394 20.9912 23.4458 20.8976 23.4458 20.7719C23.4458 20.6463 23.5394 20.5527 23.6651 20.5527Z" fill="url(#paint11_linear_1_744)"/>
<path d="M25.78 18.2113C24.6648 18.2113 23.7291 19.0653 23.6278 20.1759L24.1027 20.2192C24.1819 19.3499 24.9071 18.688 25.78 18.6881C26.6529 18.688 27.3776 19.3495 27.457 20.2188L27.9318 20.1755C27.8304 19.065 26.8952 18.2113 25.78 18.2113Z" fill="url(#paint12_linear_1_744)"/>
<path d="M20.5901 20.5335V21.0103H23.2074V20.5335H20.5901Z" fill="url(#paint13_linear_1_744)"/>
<path d="M16.4523 20.5335V21.0103H17.3606V20.5335H16.4523Z" fill="url(#paint14_linear_1_744)"/>
<path d="M18.3205 19.5735C17.6606 19.5735 17.1222 20.1119 17.1222 20.7718C17.1222 21.4317 17.6606 21.9706 18.3205 21.9706H19.6301C20.29 21.9706 20.8285 21.4317 20.8285 20.7718C20.8285 20.1119 20.29 19.5735 19.6301 19.5735H18.3205ZM18.3205 20.0502H19.6301C20.0342 20.0502 20.3517 20.3678 20.3517 20.7718C20.3517 21.1759 20.0342 21.4939 19.6301 21.4939H18.3205C17.9165 21.4939 17.5989 21.1759 17.5989 20.7718C17.5989 20.3678 17.9165 20.0502 18.3205 20.0502Z" fill="url(#paint15_linear_1_744)"/>
<path d="M11.5673 19.4107V19.8874H16.6413V19.4107H11.5673Z" fill="url(#paint16_linear_1_744)"/>
<path d="M12.8997 10.8445V11.2257V11.6075C12.8997 11.7566 12.9608 11.8945 13.0593 11.993C13.1579 12.0916 13.2959 12.1527 13.4448 12.1527H13.7037L13.9737 12.3296C14.0125 12.355 14.0579 12.3685 14.1043 12.3685C14.1507 12.3685 14.196 12.355 14.2349 12.3296L14.5049 12.1527H14.7637C14.9127 12.1527 15.0511 12.0919 15.1497 11.9934C15.2482 11.8949 15.3089 11.757 15.3089 11.608V11.2262V10.8449H14.8322V11.2262V11.608C14.8322 11.6289 14.825 11.644 14.8126 11.6564C14.8002 11.6688 14.7847 11.6764 14.7637 11.6764H14.4341C14.3876 11.6764 14.3422 11.69 14.3033 11.7155L14.1045 11.8458L13.9053 11.7155C13.8664 11.69 13.8209 11.6764 13.7744 11.6764H13.4448C13.4238 11.6764 13.4087 11.6688 13.3964 11.6564C13.384 11.644 13.3764 11.629 13.3764 11.608V11.2262V10.8449H12.8997L12.8997 10.8445Z" fill="url(#paint17_linear_1_744)"/>
<path d="M12.0975 10.6061C11.8075 10.6061 11.5668 10.8468 11.5668 11.1369V15.4432H12.0435V11.1369C12.0435 11.1027 12.0634 11.0829 12.0975 11.0829H16.111C16.1452 11.0829 16.1655 11.1026 16.1655 11.1369V15.4432H16.6422V11.1369C16.6422 10.8468 16.4011 10.6061 16.111 10.6061H12.0975Z" fill="url(#paint18_linear_1_744)"/>
<path d="M14.0994 13.9191C14.0546 13.92 14.0111 13.9336 13.9737 13.9582L13.7037 14.1351H13.4448C13.2959 14.1351 13.1579 14.1957 13.0593 14.2943C12.9608 14.3929 12.8997 14.5313 12.8997 14.6802V15.0615V15.4433H13.3764V15.0615V14.6802C13.3764 14.659 13.384 14.6437 13.3964 14.6314C13.4088 14.619 13.4237 14.6118 13.4448 14.6118H13.7744C13.8209 14.6118 13.8664 14.5982 13.9052 14.5727L14.1045 14.4424L14.3033 14.5727C14.3422 14.5982 14.3876 14.6118 14.4341 14.6118H14.7637C14.7848 14.6118 14.7998 14.619 14.8121 14.6314C14.8123 14.6314 14.8125 14.6314 14.8126 14.6314C14.825 14.6438 14.8322 14.6592 14.8322 14.6802V15.0615V15.4433H15.3089V15.0615V14.6802C15.3089 14.5312 15.2478 14.3928 15.1492 14.2943C15.0506 14.1958 14.9125 14.1351 14.7637 14.1351H14.5049L14.2349 13.9582C14.1947 13.9318 14.1475 13.9181 14.0994 13.9191Z" fill="url(#paint19_linear_1_744)"/>
<path d="M24.382 16.0308C24.034 16.2045 23.8136 16.5613 23.8136 16.9502C23.8135 17.515 24.2768 17.9777 24.8415 17.9777C25.0472 17.9777 25.2481 17.9163 25.4183 17.8008L25.1506 17.406C25.0593 17.468 24.9518 17.501 24.8415 17.501C24.5344 17.501 24.2903 17.2573 24.2903 16.9502C24.2903 16.741 24.408 16.5507 24.5952 16.4572L24.382 16.0308Z" fill="url(#paint20_linear_1_744)"/>
<path d="M18.3247 16.892V17.6364H18.8014V16.892H18.3247Z" fill="url(#paint21_linear_1_744)"/>
<path d="M19.7549 16.892V17.6364H20.2316V16.892H19.7549Z" fill="url(#paint22_linear_1_744)"/>
<path d="M38.1152 17.0977V16.207H39.1289C40.1016 16.207 40.7813 15.5801 40.7813 14.7246C40.7813 13.8867 40.2129 13.3184 39.1406 13.3184C38.168 13.3184 37.5235 13.875 37.4297 14.7598H36.416C36.5332 13.3242 37.5996 12.4043 39.1875 12.4043C40.6992 12.4043 41.8418 13.3125 41.8418 14.584C41.8418 15.6445 41.1621 16.4062 40.1074 16.5938V16.6172C41.3848 16.6934 42.2051 17.4844 42.2051 18.6738C42.2051 20.127 40.8809 21.1406 39.2227 21.1406C37.4531 21.1406 36.3223 20.1621 36.2461 18.7617H37.2598C37.3535 19.6289 38.0742 20.2266 39.211 20.2266C40.3301 20.2266 41.1328 19.5938 41.1328 18.709C41.1328 17.7129 40.3828 17.0977 39.1758 17.0977H38.1152ZM46.2881 21.1406C44.3135 21.1406 43.171 19.4414 43.171 16.7695C43.171 14.1211 44.3252 12.4043 46.2881 12.4043C48.251 12.4043 49.3936 14.1094 49.3936 16.7637C49.3936 19.4355 48.2569 21.1406 46.2881 21.1406ZM46.2881 20.2207C47.6065 20.2207 48.3331 18.8789 48.3331 16.7695C48.3331 14.6895 47.5948 13.3301 46.2881 13.3301C44.9815 13.3301 44.2315 14.7012 44.2315 16.7637C44.2315 18.873 44.9639 20.2207 46.2881 20.2207ZM55.421 17.2734C54.9992 16.8398 54.7531 16.6816 54.4835 16.6816C53.9796 16.6816 53.6984 17.0391 53.6574 17.7305H52.7199C52.714 16.4824 53.3937 15.7148 54.507 15.7148C55.005 15.7148 55.4445 15.9375 55.9542 16.4473C56.3644 16.875 56.6163 17.0332 56.88 17.0332C57.3839 17.0332 57.671 16.6758 57.712 15.9844H58.6437C58.6495 17.2324 57.9757 18 56.8624 18C56.3644 18 55.9308 17.7832 55.421 17.2734ZM66.1535 21V19.2422H61.9055V18.2871C62.6262 16.9512 63.6164 15.4102 65.6145 12.5449H67.1731V18.3164H68.3684V19.2422H67.1731V21H66.1535ZM62.9485 18.293V18.3164H66.1535V13.4238H66.136C64.5363 15.709 63.6164 17.1211 62.9485 18.293ZM72.1936 21.1406C70.219 21.1406 69.0764 19.4414 69.0764 16.7695C69.0764 14.1211 70.2307 12.4043 72.1936 12.4043C74.1565 12.4043 75.2991 14.1094 75.2991 16.7637C75.2991 19.4355 74.1624 21.1406 72.1936 21.1406ZM72.1936 20.2207C73.512 20.2207 74.2385 18.8789 74.2385 16.7695C74.2385 14.6895 73.5002 13.3301 72.1936 13.3301C70.887 13.3301 70.137 14.7012 70.137 16.7637C70.137 18.873 70.8694 20.2207 72.1936 20.2207ZM78.6195 21V14.9062H79.5804V15.8789H79.6038C79.891 15.2344 80.512 14.8008 81.3324 14.8008C82.1644 14.8008 82.7796 15.2227 83.0433 15.9609H83.0667C83.4066 15.2344 84.1214 14.8008 84.9769 14.8008C86.1839 14.8008 86.9632 15.5859 86.9632 16.793V21H85.9437V17.0273C85.9437 16.1953 85.4808 15.7031 84.6781 15.7031C83.8695 15.7031 83.3011 16.3008 83.3011 17.127V21H82.2816V16.916C82.2816 16.1836 81.7894 15.7031 81.0335 15.7031C80.2249 15.7031 79.639 16.3359 79.639 17.1797V21H78.6195ZM88.1517 21V14.9062H89.1713V21H88.1517ZM88.6615 13.8809C88.3158 13.8809 88.0287 13.5938 88.0287 13.248C88.0287 12.8965 88.3158 12.6152 88.6615 12.6152C89.0131 12.6152 89.3002 12.8965 89.3002 13.248C89.3002 13.5938 89.0131 13.8809 88.6615 13.8809ZM90.3832 21V14.9062H91.3442V15.8789H91.3676C91.7074 15.2227 92.3578 14.8008 93.3012 14.8008C94.6371 14.8008 95.4106 15.6621 95.4106 17.0449V21H94.391V17.2266C94.391 16.2422 93.9281 15.7031 92.9906 15.7031C92.0297 15.7031 91.4027 16.3828 91.4027 17.4141V21H90.3832ZM96.4409 16.5879C96.4409 15.5449 97.3725 14.8008 98.7143 14.8008C99.9741 14.8008 100.9 15.5508 100.947 16.582H99.9741C99.9038 15.9961 99.4292 15.6328 98.6792 15.6328C97.935 15.6328 97.4428 16.002 97.4428 16.5352C97.4428 16.957 97.7651 17.2383 98.4565 17.4141L99.3999 17.6426C100.63 17.9531 101.076 18.3984 101.076 19.2949C101.076 20.3555 100.074 21.1055 98.6499 21.1055C97.3139 21.1055 96.3823 20.3789 96.2768 19.3008H97.2963C97.4077 19.9336 97.8881 20.2734 98.7143 20.2734C99.5405 20.2734 100.05 19.9219 100.05 19.3711C100.05 18.9375 99.7983 18.7031 99.1128 18.5215L98.0405 18.2461C96.9682 17.9707 96.4409 17.4199 96.4409 16.5879Z" fill="black"/>
<defs>
<linearGradient id="paint0_linear_1_744" x1="10.4094" y1="17" x2="28.5906" y2="17" gradientUnits="userSpaceOnUse">
<stop stop-color="#FBC02D"/>
<stop offset="1" stop-color="#E91E63"/>
</linearGradient>
<linearGradient id="paint1_linear_1_744" x1="10.4094" y1="17.0001" x2="28.5906" y2="17.0001" gradientUnits="userSpaceOnUse">
<stop stop-color="#FBC02D"/>
<stop offset="1" stop-color="#E91E63"/>
</linearGradient>
<linearGradient id="paint2_linear_1_744" x1="10.4094" y1="17.0001" x2="28.5906" y2="17.0001" gradientUnits="userSpaceOnUse">
<stop stop-color="#FBC02D"/>
<stop offset="1" stop-color="#E91E63"/>
</linearGradient>
<linearGradient id="paint3_linear_1_744" x1="10.4094" y1="17.0001" x2="28.5906" y2="17.0001" gradientUnits="userSpaceOnUse">
<stop stop-color="#FBC02D"/>
<stop offset="1" stop-color="#E91E63"/>
</linearGradient>
<linearGradient id="paint4_linear_1_744" x1="10.4094" y1="17" x2="28.5906" y2="17" gradientUnits="userSpaceOnUse">
<stop stop-color="#FBC02D"/>
<stop offset="1" stop-color="#E91E63"/>
</linearGradient>
<linearGradient id="paint5_linear_1_744" x1="10.4094" y1="17" x2="28.5906" y2="17" gradientUnits="userSpaceOnUse">
<stop stop-color="#FBC02D"/>
<stop offset="1" stop-color="#E91E63"/>
</linearGradient>
<linearGradient id="paint6_linear_1_744" x1="10.4094" y1="17.0001" x2="28.5906" y2="17.0001" gradientUnits="userSpaceOnUse">
<stop stop-color="#FBC02D"/>
<stop offset="1" stop-color="#E91E63"/>
</linearGradient>
<linearGradient id="paint7_linear_1_744" x1="10.4094" y1="16.9999" x2="28.5906" y2="16.9999" gradientUnits="userSpaceOnUse">
<stop stop-color="#FBC02D"/>
<stop offset="1" stop-color="#E91E63"/>
</linearGradient>
<linearGradient id="paint8_linear_1_744" x1="10.4094" y1="16.9999" x2="28.5906" y2="16.9999" gradientUnits="userSpaceOnUse">
<stop stop-color="#FBC02D"/>
<stop offset="1" stop-color="#E91E63"/>
</linearGradient>
<linearGradient id="paint9_linear_1_744" x1="10.4094" y1="17" x2="28.5906" y2="17" gradientUnits="userSpaceOnUse">
<stop stop-color="#FBC02D"/>
<stop offset="1" stop-color="#E91E63"/>
</linearGradient>
<linearGradient id="paint10_linear_1_744" x1="10.4094" y1="17.0001" x2="28.5906" y2="17.0001" gradientUnits="userSpaceOnUse">
<stop stop-color="#FBC02D"/>
<stop offset="1" stop-color="#E91E63"/>
</linearGradient>
<linearGradient id="paint11_linear_1_744" x1="10.4094" y1="17.0001" x2="28.5906" y2="17.0001" gradientUnits="userSpaceOnUse">
<stop stop-color="#FBC02D"/>
<stop offset="1" stop-color="#E91E63"/>
</linearGradient>
<linearGradient id="paint12_linear_1_744" x1="10.4094" y1="17" x2="28.5906" y2="17" gradientUnits="userSpaceOnUse">
<stop stop-color="#FBC02D"/>
<stop offset="1" stop-color="#E91E63"/>
</linearGradient>
<linearGradient id="paint13_linear_1_744" x1="10.4094" y1="17" x2="28.5906" y2="17" gradientUnits="userSpaceOnUse">
<stop stop-color="#FBC02D"/>
<stop offset="1" stop-color="#E91E63"/>
</linearGradient>
<linearGradient id="paint14_linear_1_744" x1="10.4094" y1="17" x2="28.5906" y2="17" gradientUnits="userSpaceOnUse">
<stop stop-color="#FBC02D"/>
<stop offset="1" stop-color="#E91E63"/>
</linearGradient>
<linearGradient id="paint15_linear_1_744" x1="10.4094" y1="16.9999" x2="28.5906" y2="16.9999" gradientUnits="userSpaceOnUse">
<stop stop-color="#FBC02D"/>
<stop offset="1" stop-color="#E91E63"/>
</linearGradient>
<linearGradient id="paint16_linear_1_744" x1="10.4094" y1="17" x2="28.5906" y2="17" gradientUnits="userSpaceOnUse">
<stop stop-color="#FBC02D"/>
<stop offset="1" stop-color="#E91E63"/>
</linearGradient>
<linearGradient id="paint17_linear_1_744" x1="10.4094" y1="17" x2="28.5906" y2="17" gradientUnits="userSpaceOnUse">
<stop stop-color="#FBC02D"/>
<stop offset="1" stop-color="#E91E63"/>
</linearGradient>
<linearGradient id="paint18_linear_1_744" x1="10.4094" y1="17" x2="28.5906" y2="17" gradientUnits="userSpaceOnUse">
<stop stop-color="#FBC02D"/>
<stop offset="1" stop-color="#E91E63"/>
</linearGradient>
<linearGradient id="paint19_linear_1_744" x1="10.4094" y1="17.0001" x2="28.5906" y2="17.0001" gradientUnits="userSpaceOnUse">
<stop stop-color="#FBC02D"/>
<stop offset="1" stop-color="#E91E63"/>
</linearGradient>
<linearGradient id="paint20_linear_1_744" x1="10.4094" y1="17" x2="28.5906" y2="17" gradientUnits="userSpaceOnUse">
<stop stop-color="#FBC02D"/>
<stop offset="1" stop-color="#E91E63"/>
</linearGradient>
<linearGradient id="paint21_linear_1_744" x1="10.4094" y1="17" x2="28.5906" y2="17" gradientUnits="userSpaceOnUse">
<stop stop-color="#FBC02D"/>
<stop offset="1" stop-color="#E91E63"/>
</linearGradient>
<linearGradient id="paint22_linear_1_744" x1="10.4094" y1="17" x2="28.5906" y2="17" gradientUnits="userSpaceOnUse">
<stop stop-color="#FBC02D"/>
<stop offset="1" stop-color="#E91E63"/>
</linearGradient>
</defs>
</svg>
